<?xml version="1.0" encoding="UTF-8"?>
<svg id="Layer_1" data-name="Layer 1" xmlns="http://www.w3.org/2000/svg" viewBox="0 0 1218 1223">
  <defs>
    <style>
      .cls-1 {
        fill: #dddddb;
      }

      .cls-2 {
        fill: #21211d;
      }
    </style>
  </defs>
  <polygon class="cls-2" points="606.67 25.06 670.03 237.72 799.01 57.15 789.88 278.86 970.5 149.96 889.88 356.7 1102.57 293.42 959.19 462.78 1180.9 471.99 990.3 585.62 1197 666.32 979.83 711.91 1149.13 855.35 928.93 827.95 1042.48 1018.6 843.11 921.18 888.6 1138.36 731.66 981.49 704.17 1201.68 606.67 1002.35 509.18 1201.68 481.68 981.49 324.75 1138.36 370.24 921.18 170.87 1018.6 284.41 827.95 64.21 855.35 233.51 711.91 16.35 666.32 223.05 585.62 32.45 471.99 254.16 462.78 110.78 293.42 323.46 356.7 242.84 149.96 423.46 278.86 414.34 57.15 543.31 237.72 606.67 25.06"/>
  <g>
    <path class="cls-1" d="M375.45,347.92h41.46l40.44,123.88h-33.96l-12.8-39.93-.51-5.63-17.06-56.14h5.8l-16.55,56.14-1.02,5.63-12.29,39.93h-33.61l40.1-123.88ZM371.52,420.1h50.68l.51,26.96h-51.19v-26.96Z"/>
    <path class="cls-1" d="M497.28,347.92h80.2v29.52h-46.58v21.84h36.35v28.33h-36.35v44.19h-33.62v-123.88Z"/>
    <path class="cls-1" d="M613.99,466.94c-8.31-4.61-14.79-11.29-19.45-20.05-4.67-8.76-7-19.17-7-31.23v-67.74h33.45v67.74c0,5.92.94,10.86,2.82,14.84,1.88,3.98,4.44,6.97,7.68,8.96,3.24,1.99,6.8,2.99,10.66,2.99,4.1,0,7.76-1.02,11.01-3.07s5.77-5.06,7.59-9.04c1.82-3.98,2.73-8.87,2.73-14.67v-67.74h33.44v67.74c0,12.06-2.36,22.47-7.08,31.23-4.72,8.76-11.24,15.44-19.54,20.05-8.31,4.61-17.69,6.91-28.16,6.91s-19.85-2.3-28.15-6.91Z"/>
    <path class="cls-1" d="M712.62,347.92h33.62v93.85h43.68v30.03h-77.3v-123.88Z"/>
    <path class="cls-1" d="M799.13,347.92h33.62v93.85h43.68v30.03h-77.3v-123.88Z"/>
  </g>
  <g>
    <path class="cls-1" d="M303.86,613.28c-5.52-1.54-10.35-3.58-14.5-6.14-4.15-2.56-7.08-5.21-8.79-7.93v-38.22c3.07,4.78,6.74,9.07,11.01,12.88,4.27,3.81,8.81,6.8,13.65,8.96,4.83,2.16,9.58,3.24,14.25,3.24,2.39,0,4.58-.34,6.57-1.02,1.99-.68,3.55-1.68,4.69-2.99,1.14-1.31,1.71-2.93,1.71-4.86,0-2.84-1.37-5.15-4.1-6.91-2.73-1.76-7-3.78-12.8-6.06-4.78-1.71-8.02-3.01-9.73-3.92-4.89-2.5-9.36-5.4-13.4-8.7-4.04-3.3-7.25-7.19-9.64-11.69-2.39-4.49-3.58-9.47-3.58-14.93,0-6.83,1.85-13.08,5.55-18.77,3.7-5.69,8.87-10.21,15.53-13.57,6.66-3.35,14.25-5.03,22.78-5.03,7.96,0,15.47,1.37,22.52,4.09,7.05,2.73,12.12,5.63,15.19,8.7l2.05,34.64c-6.26-5.8-12.8-10.32-19.62-13.57s-13.2-4.86-19.11-4.86c-2.5,0-4.69.31-6.57.94-1.88.63-3.33,1.54-4.35,2.73-1.02,1.19-1.54,2.53-1.54,4.01,0,2.28.91,4.15,2.73,5.63,1.82,1.48,5,3.19,9.56,5.12,2.39.91,4.18,1.62,5.38,2.13,1.19.51,2.99,1.28,5.38,2.3,6.03,2.28,11.35,5.01,15.95,8.19,4.61,3.19,8.3,7.11,11.09,11.77,2.79,4.67,4.18,10.07,4.18,16.21,0,7.05-1.91,13.62-5.72,19.71-3.81,6.09-9.19,10.98-16.12,14.67-6.94,3.7-14.79,5.55-23.55,5.55-5.58,0-11.12-.77-16.64-2.3Z"/>
    <path class="cls-1" d="M381.08,489.65h79.86v29.52h-47.27v18.09h34.47v26.96h-34.47v19.79h47.27v29.52h-79.86v-123.88Z"/>
    <path class="cls-1" d="M473.05,489.65h46.41c11.15,0,20.33,1.85,27.56,5.54,7.22,3.7,12.46,8.48,15.7,14.33,3.24,5.86,4.86,12.2,4.86,19.03,0,7.28-2.02,14.08-6.06,20.39-4.04,6.31-9.64,11.29-16.81,14.93-7.17,3.64-15.25,5.46-24.23,5.46h-21.84v-26.79h20.31c2.84,0,5.38-.57,7.59-1.71,2.22-1.14,3.95-2.65,5.2-4.52,1.25-1.88,1.88-3.95,1.88-6.23,0-2.62-.63-4.89-1.88-6.83-1.25-1.93-2.96-3.44-5.12-4.52-2.16-1.08-4.72-1.62-7.68-1.62h-20.48l7.68-7.68v104.09h-33.1v-123.88ZM507.17,565.41l32.08-4.61,34.98,52.73h-36.69l-30.37-48.12Z"/>
    <path class="cls-1" d="M567.92,489.65h35.49l28.84,98.46h-5.12l25.25-98.46h35.49l-37.37,123.88h-42.66l-39.93-123.88Z"/>
    <path class="cls-1" d="M695.04,489.65h33.62v123.88h-33.62v-123.88Z"/>
    <path class="cls-1" d="M773.88,607.65c-9.67-5.29-17.43-12.68-23.29-22.18-5.86-9.5-8.79-20.28-8.79-32.34s2.73-22.44,8.19-32.51c5.46-10.07,13.11-18.09,22.95-24.06,9.84-5.97,20.96-8.96,33.36-8.96,6.14,0,12.4.85,18.77,2.56,6.37,1.71,12.23,4.27,17.58,7.68v39.59c-4.78-6.03-9.96-10.69-15.53-13.99-5.58-3.3-11.49-4.95-17.75-4.95-5.92,0-11.35,1.45-16.3,4.35-4.95,2.9-8.9,6.85-11.86,11.86-2.96,5.01-4.44,10.64-4.44,16.89s1.45,11.75,4.35,16.81c2.9,5.06,6.77,9.04,11.6,11.94,4.83,2.9,10.21,4.35,16.12,4.35,6.37,0,12.68-1.68,18.94-5.03,6.25-3.35,12.06-7.99,17.4-13.91l-3.58,38.56c-4.67,3.64-10.15,6.43-16.47,8.36-6.31,1.93-13.11,2.9-20.39,2.9-10.92,0-21.22-2.65-30.88-7.93Z"/>
    <path class="cls-1" d="M858.68,489.65h79.86v29.52h-47.27v18.09h34.47v26.96h-34.47v19.79h47.27v29.52h-79.86v-123.88Z"/>
  </g>
  <g>
    <path class="cls-1" d="M314.67,635.04h33.1v123.88h-33.1v-123.88ZM332.93,729.41h24.23c6.48,0,12.06-1.08,16.72-3.24,4.66-2.16,8.28-5.66,10.83-10.49,2.56-4.83,3.84-11.06,3.84-18.68s-1.28-14.02-3.84-18.86c-2.56-4.83-6.14-8.3-10.75-10.41-4.61-2.1-10.21-3.16-16.81-3.16h-24.23v-29.52h28.67c12.17,0,22.95,2.5,32.34,7.51,9.38,5.01,16.69,12.14,21.93,21.41,5.23,9.27,7.85,20.11,7.85,32.51s-2.67,23.49-8.02,32.93c-5.35,9.44-12.66,16.72-21.93,21.84-9.27,5.12-19.65,7.68-31.14,7.68h-29.69v-29.52Z"/>
    <path class="cls-1" d="M437.19,635.04h79.86v29.52h-47.27v18.09h34.47v26.96h-34.47v19.79h47.27v29.52h-79.86v-123.88Z"/>
    <path class="cls-1" d="M550.4,758.67c-5.52-1.54-10.35-3.58-14.5-6.14-4.15-2.56-7.08-5.21-8.79-7.93v-38.22c3.07,4.78,6.74,9.07,11.01,12.88,4.27,3.81,8.81,6.8,13.65,8.96,4.83,2.16,9.58,3.24,14.25,3.24,2.39,0,4.58-.34,6.57-1.02,1.99-.68,3.55-1.68,4.69-2.99,1.14-1.31,1.71-2.93,1.71-4.86,0-2.84-1.36-5.15-4.1-6.91-2.73-1.76-7-3.78-12.8-6.06-4.78-1.71-8.02-3.01-9.73-3.92-4.89-2.5-9.36-5.4-13.39-8.7-4.04-3.3-7.25-7.19-9.64-11.69-2.39-4.49-3.58-9.47-3.58-14.93,0-6.83,1.85-13.08,5.55-18.77,3.7-5.69,8.87-10.21,15.53-13.57,6.65-3.35,14.25-5.03,22.78-5.03,7.96,0,15.47,1.37,22.52,4.09,7.05,2.73,12.11,5.63,15.19,8.7l2.05,34.64c-6.26-5.8-12.8-10.32-19.62-13.57-6.82-3.24-13.2-4.86-19.11-4.86-2.5,0-4.69.31-6.57.94-1.88.63-3.33,1.54-4.35,2.73s-1.54,2.53-1.54,4.01c0,2.28.91,4.15,2.73,5.63,1.82,1.48,5,3.19,9.56,5.12,2.39.91,4.18,1.62,5.38,2.13s2.99,1.28,5.38,2.3c6.03,2.28,11.35,5.01,15.96,8.19,4.61,3.19,8.3,7.11,11.09,11.77,2.79,4.67,4.18,10.07,4.18,16.21,0,7.05-1.91,13.62-5.72,19.71-3.81,6.09-9.19,10.98-16.12,14.67-6.94,3.7-14.79,5.55-23.55,5.55-5.58,0-11.12-.77-16.64-2.3Z"/>
    <path class="cls-1" d="M628.12,635.04h33.62v123.88h-33.62v-123.88Z"/>
    <path class="cls-1" d="M708.58,752.7c-10.86-5.52-19.23-13.11-25.08-22.78-5.86-9.67-8.79-20.48-8.79-32.42s3.01-22.84,9.04-32.68c6.03-9.84,14.22-17.6,24.57-23.29,10.35-5.69,21.67-8.53,33.96-8.53,5.8,0,11.66.63,17.58,1.88,5.91,1.25,10.98,3.02,15.19,5.29v33.61c-4.67-3.41-9.56-6-14.67-7.76-5.12-1.76-10.35-2.64-15.7-2.64-6.37,0-12.2,1.45-17.49,4.35-5.29,2.9-9.53,6.97-12.71,12.2-3.19,5.23-4.78,11.26-4.78,18.09,0,6.26,1.45,11.94,4.35,17.06s6.94,9.13,12.12,12.03c5.17,2.9,11.06,4.35,17.66,4.35,2.27,0,4.15-.14,5.63-.43,1.48-.28,2.84-.65,4.1-1.11l-5.12,9.21v-26.28h-16.89v-27.47h46.41v69.96c-3.53,1.71-8.19,3.07-13.99,4.09-5.8,1.02-11.66,1.54-17.58,1.54-14.33,0-26.93-2.76-37.8-8.28Z"/>
    <path class="cls-1" d="M795.18,635.04h26.45l57.68,75.59-4.1,2.05v-77.64h31.57v123.88h-26.96l-57.16-75.08,4.61-2.22v77.3h-32.08v-123.88Z"/>
  </g>
  <g>
    <path class="cls-1" d="M381.59,778.72h32.03l31.24,95.69h-26.23l-9.89-30.84-.4-4.35-13.18-43.36h4.48l-12.79,43.36-.79,4.35-9.49,30.84h-25.97l30.97-95.69ZM378.56,834.48h39.15l.4,20.83h-39.54v-20.83Z"/>
    <path class="cls-1" d="M469.44,869.6c-8.39-4.26-14.85-10.13-19.38-17.6-4.53-7.47-6.79-15.82-6.79-25.04s2.33-17.64,6.99-25.24c4.66-7.6,10.98-13.6,18.98-17.99,7.99-4.39,16.74-6.59,26.23-6.59,4.48,0,9.01.48,13.58,1.45,4.57.97,8.48,2.33,11.73,4.09v25.97c-3.6-2.64-7.38-4.63-11.33-6-3.95-1.36-8-2.04-12.13-2.04-4.92,0-9.42,1.12-13.51,3.36-4.09,2.24-7.36,5.38-9.82,9.42-2.46,4.04-3.69,8.7-3.69,13.97,0,4.83,1.12,9.23,3.36,13.18,2.24,3.95,5.36,7.05,9.36,9.29,4,2.24,8.54,3.36,13.64,3.36,1.76,0,3.21-.11,4.35-.33,1.14-.22,2.2-.5,3.16-.86l-3.95,7.12v-20.3h-13.05v-21.22h35.85v54.04c-2.72,1.32-6.33,2.37-10.81,3.16-4.48.79-9.01,1.19-13.58,1.19-11.07,0-20.8-2.13-29.19-6.39Z"/>
    <path class="cls-1" d="M536.33,778.72h61.68v22.8h-36.51v13.97h26.62v20.83h-26.62v15.29h36.51v22.8h-61.68v-95.69Z"/>
    <path class="cls-1" d="M607.37,778.72h20.43l44.55,58.39-3.16,1.58v-59.97h24.38v95.69h-20.83l-44.15-57.99,3.56-1.71v59.71h-24.78v-95.69Z"/>
    <path class="cls-1" d="M728.36,869.87c-7.47-4.09-13.47-9.8-17.99-17.13-4.53-7.34-6.79-15.66-6.79-24.98s2.11-17.33,6.33-25.11c4.22-7.78,10.13-13.97,17.73-18.58,7.6-4.61,16.19-6.92,25.77-6.92,4.75,0,9.58.66,14.5,1.98,4.92,1.32,9.45,3.29,13.58,5.93v30.58c-3.69-4.66-7.69-8.26-11.99-10.81-4.31-2.55-8.88-3.82-13.71-3.82-4.57,0-8.77,1.12-12.59,3.36-3.82,2.24-6.88,5.29-9.16,9.16-2.29,3.87-3.43,8.22-3.43,13.05s1.12,9.07,3.36,12.98c2.24,3.91,5.23,6.99,8.96,9.23,3.73,2.24,7.89,3.36,12.46,3.36,4.92,0,9.8-1.3,14.63-3.89,4.83-2.59,9.31-6.17,13.44-10.74l-2.77,29.79c-3.6,2.81-7.84,4.96-12.72,6.46s-10.13,2.24-15.75,2.24c-8.44,0-16.39-2.04-23.86-6.13Z"/>
    <path class="cls-1" d="M817.33,843.17l-32.82-64.45h27.02l21.88,46h-6.72l21.48-46h27.02l-32.42,64.45v31.24h-25.44v-31.24Z"/>
  </g>
</svg>