<?xml version="1.0" encoding="UTF-8"?>
<svg id="Layer_1" data-name="Layer 1" xmlns="http://www.w3.org/2000/svg" viewBox="0 0 93.5 61">
  <defs>
    <style>
      .cls-1 {
        fill: #755330;
      }
    </style>
  </defs>
  <path class="cls-1" d="M8.54,52.71c-3.93-4.52-5.9-10.71-5.9-18.57s2.42-15.12,7.25-22.08C14.73,5.1,20.92,1.62,28.47,1.62c1.17,0,2.42.24,3.75.72,1.33.48,1.99,1.09,1.99,1.83,0,.32-.16.53-.48.64-.32.11-.82.24-1.51.4-.69.16-1.3.35-1.83.56-1.17.64-2.21,1.73-3.11,3.27-.9,1.54-1.35,3.27-1.35,5.18s.53,3.29,1.59,4.14c4.89.96,8.9,3.32,12.04,7.09,3.14,3.77,4.7,8.21,4.7,13.31,0,5.74-2.02,10.63-6.06,14.67-4.04,4.04-8.98,6.06-14.83,6.06s-10.89-2.26-14.83-6.77ZM56.12,12.07c4.83-6.96,11.03-10.44,18.57-10.44,1.17,0,2.42.24,3.75.72,1.33.48,1.99,1.09,1.99,1.83,0,.32-.16.53-.48.64-.32.11-.82.24-1.51.4-.69.16-1.3.35-1.83.56-1.17.64-2.21,1.73-3.11,3.27-.9,1.54-1.35,3.27-1.35,5.18,0,1.81.58,3.19,1.75,4.14,4.78.96,8.74,3.32,11.88,7.09,3.14,3.77,4.7,8.21,4.7,13.31,0,5.74-2.02,10.63-6.06,14.67-4.04,4.04-8.98,6.06-14.83,6.06s-10.89-2.26-14.83-6.77c-3.93-4.52-5.9-10.71-5.9-18.57s2.42-15.12,7.25-22.08Z"/>
</svg>