<svg width="1165" height="579" viewBox="0 0 1165 579" fill="none" xmlns="http://www.w3.org/2000/svg">
<path d="M75.5239 114.5C75.5239 103.34 78.0349 93.854 83.3359 85.763C88.6369 77.672 95.8909 71.534 104.819 67.07C113.747 62.606 123.233 59.537 133.277 57.584C143.321 55.631 153.923 54.515 165.362 54.515C189.356 54.515 210.281 58.142 228.137 65.117C245.993 72.092 254.921 79.625 254.921 87.995C254.921 96.923 251.852 105.572 245.993 113.663C239.855 122.033 234.275 125.939 228.974 125.939C220.604 125.939 211.955 123.149 202.748 117.29C193.541 111.71 185.45 105.293 178.754 98.597C171.779 91.901 163.967 85.484 155.039 79.625C146.111 74.045 138.02 70.976 130.208 70.976C124.349 70.976 119.048 72.65 114.584 75.998C110.12 79.346 107.888 84.089 107.888 90.227C107.888 96.644 111.515 101.666 118.769 105.014C126.023 108.362 136.346 111.431 150.017 113.663C161.456 115.895 171.5 117.848 179.87 119.801C188.24 122.033 197.726 125.102 207.77 129.008C217.814 133.193 225.905 137.936 232.043 142.958C238.181 147.98 243.482 154.676 247.946 162.767C252.131 171.137 254.363 180.344 254.363 190.667C254.363 202.943 251.294 213.824 245.714 223.031C240.134 232.238 232.88 239.213 223.952 243.956C215.024 248.978 206.096 252.605 197.168 254.837C188.24 257.069 179.312 258.185 170.663 258.185C149.738 258.185 128.813 255.674 108.167 250.652C87.2419 245.63 76.9189 239.771 76.9189 233.075C76.9189 226.1 79.9879 215.777 86.4049 201.827C92.5429 187.877 98.4019 180.902 103.703 180.902C107.051 180.902 112.073 182.855 118.769 186.761C125.186 190.667 131.882 194.852 138.857 199.316C145.553 204.059 154.76 208.244 165.92 212.15C177.08 216.056 188.24 217.73 199.958 217.73C210.002 217.73 218.93 215.219 227.021 210.197C235.112 205.175 239.297 199.316 239.297 192.062C239.297 186.482 235.391 183.413 227.579 183.413C224.789 183.413 218.093 184.25 207.491 185.366C196.889 186.482 187.403 187.04 179.591 187.04C170.105 187.04 160.619 186.482 151.412 184.808C141.926 183.413 132.719 180.902 123.512 177.275C114.026 173.648 105.935 169.184 98.9599 163.883C91.9849 158.582 86.4049 151.607 81.9409 142.958C77.4769 134.588 75.5239 125.102 75.5239 114.5ZM259.064 58.7C265.202 58.7 273.293 55.91 282.779 49.772C292.265 43.634 301.193 36.938 309.005 29.684C316.817 22.43 324.35 15.734 331.604 9.59599C338.858 3.45798 343.601 0.388989 346.112 0.388989C349.46 0.388989 351.413 2.62099 351.413 7.08499V58.7H375.407V72.65H351.413V185.366V191.783V198.758C351.413 199.874 351.413 202.106 351.413 205.175C351.413 208.244 351.692 210.476 351.692 211.592C351.692 212.987 351.971 214.94 352.529 217.451C352.808 219.962 353.087 221.915 353.645 223.31L355.319 228.332C355.877 230.285 356.714 231.959 357.551 233.075C358.388 234.191 359.504 235.586 360.62 236.702C361.736 238.097 363.131 239.213 364.805 240.05C365.084 240.329 367.595 240.887 372.059 241.724C371.222 246.746 367.595 250.652 361.457 253.721C355.319 256.79 348.623 258.185 341.648 258.185C331.046 258.185 322.118 256.79 314.585 253.721C307.052 250.652 301.193 246.746 297.008 242.003C292.544 237.26 289.196 231.122 286.685 223.868C283.895 216.614 282.221 209.639 281.663 202.943C280.826 196.247 280.547 188.714 280.547 180.065V90.506C280.547 87.716 280.268 85.484 280.268 84.089C280.268 82.694 279.71 81.02 279.152 78.788C278.315 76.556 276.92 75.161 275.246 74.045C273.293 73.208 270.782 72.65 267.713 72.65H259.064V58.7ZM376.659 210.476C376.659 196.247 379.449 183.134 385.587 171.416C391.446 159.698 399.537 149.933 409.86 142.121C420.183 134.309 431.343 127.613 443.34 122.591C455.058 117.569 468.171 113.384 482.121 110.315C488.817 109.199 492.165 105.014 492.165 98.039C492.165 94.691 491.607 91.343 491.049 88.274C490.491 85.484 489.375 82.415 487.701 79.346C486.027 76.556 483.516 74.045 480.168 72.371C476.82 70.697 472.635 69.86 467.892 69.86C461.196 70.139 455.058 72.092 448.92 75.998C442.782 79.904 437.202 84.926 432.738 90.506C427.995 96.086 423.531 101.666 419.625 107.246C415.44 112.826 411.534 117.569 407.628 121.475C403.722 125.381 400.374 127.334 397.305 127.334C395.073 127.334 392.841 126.497 391.167 124.823C389.493 123.149 388.656 120.917 388.656 118.406V103.061C388.656 102.503 388.377 100.55 388.377 97.76C388.377 94.97 388.377 92.738 388.377 91.622C388.377 90.506 388.656 88.832 388.935 86.6C389.214 84.368 389.772 82.694 390.888 81.02C391.725 79.625 392.841 78.23 394.236 76.835C409.86 62.048 435.807 54.515 472.077 54.515C487.422 54.515 501.372 57.026 513.648 62.048C525.924 67.07 535.968 73.487 543.501 81.578C550.755 89.669 556.614 98.597 560.52 108.362C564.426 118.127 566.379 128.171 566.379 138.215V221.078C566.379 236.702 569.448 247.583 576.144 254H507.789C499.419 254 494.676 250.094 493.281 242.003C492.165 235.586 489.654 232.238 486.027 232.238C483.516 232.238 480.447 233.633 477.099 236.423C473.751 239.213 470.124 242.003 466.776 245.351C463.149 248.699 457.848 251.489 450.594 254.279C443.34 257.069 435.249 258.185 426.321 258.185C412.65 258.185 400.932 253.721 391.167 244.514C381.402 235.307 376.659 223.868 376.659 210.476ZM482.121 128.45C472.356 128.45 463.428 133.751 455.337 144.353C447.246 154.955 443.34 168.068 443.34 184.25C443.34 209.918 451.989 222.752 469.845 222.752C477.099 222.752 482.679 219.962 486.585 214.103C490.491 208.244 492.444 200.432 492.444 190.946C492.444 185.087 492.165 177.554 492.165 168.347C492.165 159.14 492.165 151.607 492.165 145.748C492.165 139.61 491.328 135.146 489.933 132.356C488.259 129.845 485.748 128.45 482.121 128.45ZM580.361 254C586.778 247.583 590.126 236.702 590.126 221.078V91.622C590.126 76.277 586.778 65.396 580.361 58.7H648.716C654.296 58.7 658.481 60.653 660.713 64.559C662.945 68.465 664.061 74.324 664.061 81.857V86.6C664.061 91.064 664.619 93.296 666.014 93.296C667.688 93.296 669.362 92.18 671.594 89.39C673.826 86.6 676.058 83.531 678.848 79.625C681.638 75.719 684.707 72.092 688.613 68.186C692.519 64.559 697.541 61.49 704.237 58.7C710.654 55.91 717.908 54.515 726.278 54.515C734.648 54.515 742.46 56.189 749.993 59.258C757.247 62.327 761.153 66.233 761.153 71.255C761.153 72.371 756.131 82.973 746.087 103.061C745.25 104.735 744.134 106.967 742.739 109.757C741.344 112.547 740.228 114.5 739.67 115.895C738.833 117.569 737.996 119.243 736.88 121.475C735.764 123.707 734.648 125.381 734.09 126.497C733.253 127.613 732.416 128.729 731.579 129.845C730.463 130.961 729.626 131.798 729.068 132.356C728.231 132.914 727.394 133.193 726.836 133.193C724.046 133.193 721.814 132.077 719.861 129.566C717.629 127.055 715.955 124.265 714.56 120.917C712.886 117.848 710.096 115.058 706.19 112.547C702.005 110.036 696.983 108.641 690.845 108.641C672.989 108.641 664.061 120.917 664.061 145.19V221.078C664.061 236.702 667.13 247.583 673.826 254H580.361ZM763.935 58.7C770.073 58.7 778.164 55.91 787.65 49.772C797.136 43.634 806.064 36.938 813.876 29.684C821.688 22.43 829.221 15.734 836.475 9.59599C843.729 3.45798 848.472 0.388989 850.983 0.388989C854.331 0.388989 856.284 2.62099 856.284 7.08499V58.7H880.278V72.65H856.284V185.366V191.783V198.758C856.284 199.874 856.284 202.106 856.284 205.175C856.284 208.244 856.563 210.476 856.563 211.592C856.563 212.987 856.842 214.94 857.4 217.451C857.679 219.962 857.958 221.915 858.516 223.31L860.19 228.332C860.748 230.285 861.585 231.959 862.422 233.075C863.259 234.191 864.375 235.586 865.491 236.702C866.607 238.097 868.002 239.213 869.676 240.05C869.955 240.329 872.466 240.887 876.93 241.724C876.093 246.746 872.466 250.652 866.328 253.721C860.19 256.79 853.494 258.185 846.519 258.185C835.917 258.185 826.989 256.79 819.456 253.721C811.923 250.652 806.064 246.746 801.879 242.003C797.415 237.26 794.067 231.122 791.556 223.868C788.766 216.614 787.092 209.639 786.534 202.943C785.697 196.247 785.418 188.714 785.418 180.065V90.506C785.418 87.716 785.139 85.484 785.139 84.089C785.139 82.694 784.581 81.02 784.023 78.788C783.186 76.556 781.791 75.161 780.117 74.045C778.164 73.208 775.653 72.65 772.584 72.65H763.935V58.7Z" fill="#DDDDDB"/>
<path d="M959.998 134.1C963.892 134.1 969.025 132.33 975.043 128.436C981.061 124.542 986.725 120.294 991.681 115.692C996.637 111.09 1001.42 106.842 1006.02 102.948C1010.62 99.054 1013.63 97.107 1015.22 97.107C1017.35 97.107 1018.59 98.523 1018.59 101.355V134.1H1033.81V142.95H1018.59V214.458V218.529V222.954C1018.59 223.662 1018.59 225.078 1018.59 227.025C1018.59 228.972 1018.76 230.388 1018.76 231.096C1018.76 231.981 1018.94 233.22 1019.29 234.813C1019.47 236.406 1019.65 237.645 1020 238.53L1021.06 241.716C1021.42 242.955 1021.95 244.017 1022.48 244.725C1023.01 245.433 1023.72 246.318 1024.43 247.026C1025.13 247.911 1026.02 248.619 1027.08 249.15C1027.26 249.327 1028.85 249.681 1031.68 250.212C1031.15 253.398 1028.85 255.876 1024.96 257.823C1021.06 259.77 1016.82 260.655 1012.39 260.655C1005.66 260.655 1000 259.77 995.221 257.823C990.442 255.876 986.725 253.398 984.07 250.389C981.238 247.38 979.114 243.486 977.521 238.884C975.751 234.282 974.689 229.857 974.335 225.609C973.804 221.361 973.627 216.582 973.627 211.095V154.278C973.627 152.508 973.45 151.092 973.45 150.207C973.45 149.322 973.096 148.26 972.742 146.844C972.211 145.428 971.326 144.543 970.264 143.835C969.025 143.304 967.432 142.95 965.485 142.95H959.998V134.1ZM1050.93 242.424C1038.54 230.034 1032.52 214.812 1032.87 197.112C1033.05 179.412 1039.6 164.013 1052.34 151.092C1065.26 138.171 1080.66 131.622 1098.54 131.622C1115.71 131.622 1130.4 137.817 1142.44 149.853C1154.65 162.243 1160.67 177.465 1160.31 195.165C1159.96 212.865 1153.59 228.264 1141.02 241.008C1127.92 254.106 1112.52 260.655 1094.82 260.655C1077.48 260.655 1062.96 254.637 1050.93 242.424ZM1088.1 141.003C1082.26 141.888 1078.18 148.083 1075.71 159.588C1073.23 171.093 1073.23 184.545 1075.71 199.944C1078.01 215.343 1082.08 228.087 1087.74 238.353C1093.41 248.619 1099.25 253.221 1105.09 252.159C1110.75 251.274 1114.65 245.079 1117.12 233.751C1119.43 222.423 1119.43 208.794 1117.3 193.218C1115 177.996 1110.93 165.252 1105.27 154.986C1099.6 144.72 1093.76 140.118 1088.1 141.003Z" fill="#DDDDDB"/>
<path d="M244.279 574H150.814C157.231 567.583 160.579 556.702 160.579 541.078V375.631C160.579 364.192 161.974 353.59 165.043 343.546C167.833 333.781 172.297 324.853 178.435 316.762C184.573 308.95 192.664 302.533 203.266 297.79C213.589 293.326 225.586 290.815 239.536 290.815C250.975 290.815 262.414 293.047 273.853 297.232C285.013 301.696 290.872 306.439 290.872 311.74C290.872 318.994 287.524 329.317 280.828 342.988C280.27 344.104 279.433 346.057 278.317 348.289C277.201 350.8 276.643 352.474 276.085 353.311L273.853 356.938C273.016 358.333 272.179 359.17 271.342 359.728C270.226 360.286 269.389 360.286 268.273 360.286C264.367 360.286 259.345 358.612 253.486 354.706C247.627 351.079 242.047 347.173 237.025 342.709C231.724 338.245 225.586 334.339 218.332 330.433C211.078 326.806 204.382 324.853 198.244 324.853C194.617 324.853 191.548 326.248 188.758 328.48C185.968 330.712 184.573 333.781 184.573 337.687C184.573 347.731 188.479 356.938 196.291 365.587C204.103 374.515 213.589 378.7 225.028 378.7H261.019V392.65H234.514V541.078C234.514 556.702 237.583 567.583 244.279 574ZM289.432 408.553C289.432 407.437 290.269 406.042 292.501 404.926C293.059 404.926 295.291 403.81 299.197 401.857C303.103 399.904 306.451 398.23 309.52 396.556C312.589 395.161 316.495 393.208 321.517 390.976C326.539 388.744 331.003 386.512 335.188 384.838C339.094 383.164 343.279 381.49 347.743 379.816C352.207 378.142 356.113 377.026 359.74 375.91C363.088 375.073 366.157 374.515 368.389 374.515C370.9 374.515 372.853 375.352 374.248 376.468C375.364 377.584 376.201 378.979 376.48 380.095C376.48 381.211 376.759 383.164 376.759 385.396V541.078C376.759 556.702 379.828 567.583 386.524 574H293.059C299.476 567.583 302.824 556.702 302.824 541.078V433.942V432.268V429.757C302.824 429.199 302.545 428.083 302.545 426.688C302.545 425.572 302.266 424.456 302.266 423.34C301.987 422.503 301.708 421.387 301.15 419.992C300.592 418.876 300.034 417.76 299.476 416.923C298.918 416.086 298.081 415.249 296.965 414.412C295.849 413.575 294.733 413.017 293.617 412.459C290.827 411.622 289.432 410.227 289.432 408.553ZM339.094 278.539C351.37 278.539 361.135 282.445 368.668 289.699C375.922 297.232 379.828 306.997 379.828 319.273C379.828 331.549 375.922 341.593 368.668 348.847C361.135 356.38 351.37 360.007 339.094 360.007C326.818 360.007 316.774 356.38 309.52 348.847C301.987 341.593 298.36 331.549 298.36 319.273C298.36 306.997 301.987 297.232 309.52 289.699C316.774 282.445 326.818 278.539 339.094 278.539ZM484.045 574H390.58C396.997 567.583 400.345 556.702 400.345 541.078V411.622C400.345 396.277 396.997 385.396 390.58 378.7H458.935C464.515 378.7 468.7 380.653 470.932 384.559C473.164 388.465 474.28 394.324 474.28 401.857V406.6C474.28 411.064 474.838 413.296 476.233 413.296C478.186 413.296 480.418 412.18 482.65 409.39C484.882 406.6 487.393 403.531 490.462 399.625C493.252 395.719 496.879 392.092 500.785 388.186C504.691 384.559 509.992 381.49 516.967 378.7C523.942 375.91 531.754 374.515 540.682 374.515C572.488 374.515 588.391 396.556 588.391 440.08L588.67 493.369V541.078C588.67 556.702 591.739 567.583 598.435 574H504.97C511.387 567.583 514.735 556.702 514.735 541.078V450.403C514.735 433.942 509.434 425.572 498.832 425.572C482.371 425.572 474.28 438.964 474.28 465.19V541.078C474.28 556.702 477.349 567.583 484.045 574ZM599.765 408.553C599.765 407.437 600.602 406.042 602.834 404.926C603.392 404.926 605.624 403.81 609.53 401.857C613.436 399.904 616.784 398.23 619.853 396.556C622.922 395.161 626.828 393.208 631.85 390.976C636.872 388.744 641.336 386.512 645.521 384.838C649.427 383.164 653.612 381.49 658.076 379.816C662.54 378.142 666.446 377.026 670.073 375.91C673.421 375.073 676.49 374.515 678.722 374.515C681.233 374.515 683.186 375.352 684.581 376.468C685.697 377.584 686.534 378.979 686.813 380.095C686.813 381.211 687.092 383.164 687.092 385.396V541.078C687.092 556.702 690.161 567.583 696.857 574H603.392C609.809 567.583 613.157 556.702 613.157 541.078V433.942V432.268V429.757C613.157 429.199 612.878 428.083 612.878 426.688C612.878 425.572 612.599 424.456 612.599 423.34C612.32 422.503 612.041 421.387 611.483 419.992C610.925 418.876 610.367 417.76 609.809 416.923C609.251 416.086 608.414 415.249 607.298 414.412C606.182 413.575 605.066 413.017 603.95 412.459C601.16 411.622 599.765 410.227 599.765 408.553ZM649.427 278.539C661.703 278.539 671.468 282.445 679.001 289.699C686.255 297.232 690.161 306.997 690.161 319.273C690.161 331.549 686.255 341.593 679.001 348.847C671.468 356.38 661.703 360.007 649.427 360.007C637.151 360.007 627.107 356.38 619.853 348.847C612.32 341.593 608.693 331.549 608.693 319.273C608.693 306.997 612.32 297.232 619.853 289.699C627.107 282.445 637.151 278.539 649.427 278.539ZM702.308 434.5C702.308 423.34 704.819 413.854 710.12 405.763C715.421 397.672 722.675 391.534 731.603 387.07C740.531 382.606 750.017 379.537 760.061 377.584C770.105 375.631 780.707 374.515 792.146 374.515C816.14 374.515 837.065 378.142 854.921 385.117C872.777 392.092 881.705 399.625 881.705 407.995C881.705 416.923 878.636 425.572 872.777 433.663C866.639 442.033 861.059 445.939 855.758 445.939C847.388 445.939 838.739 443.149 829.532 437.29C820.325 431.71 812.234 425.293 805.538 418.597C798.563 411.901 790.751 405.484 781.823 399.625C772.895 394.045 764.804 390.976 756.992 390.976C751.133 390.976 745.832 392.65 741.368 395.998C736.904 399.346 734.672 404.089 734.672 410.227C734.672 416.644 738.299 421.666 745.553 425.014C752.807 428.362 763.13 431.431 776.801 433.663C788.24 435.895 798.284 437.848 806.654 439.801C815.024 442.033 824.51 445.102 834.554 449.008C844.598 453.193 852.689 457.936 858.827 462.958C864.965 467.98 870.266 474.676 874.73 482.767C878.915 491.137 881.147 500.344 881.147 510.667C881.147 522.943 878.078 533.824 872.498 543.031C866.918 552.238 859.664 559.213 850.736 563.956C841.808 568.978 832.88 572.605 823.952 574.837C815.024 577.069 806.096 578.185 797.447 578.185C776.522 578.185 755.597 575.674 734.951 570.652C714.026 565.63 703.703 559.771 703.703 553.075C703.703 546.1 706.772 535.777 713.189 521.827C719.327 507.877 725.186 500.902 730.487 500.902C733.835 500.902 738.857 502.855 745.553 506.761C751.97 510.667 758.666 514.852 765.641 519.316C772.337 524.059 781.544 528.244 792.704 532.15C803.864 536.056 815.024 537.73 826.742 537.73C836.786 537.73 845.714 535.219 853.805 530.197C861.896 525.175 866.081 519.316 866.081 512.062C866.081 506.482 862.175 503.413 854.363 503.413C851.573 503.413 844.877 504.25 834.275 505.366C823.673 506.482 814.187 507.04 806.375 507.04C796.889 507.04 787.403 506.482 778.196 504.808C768.71 503.413 759.503 500.902 750.296 497.275C740.81 493.648 732.719 489.184 725.744 483.883C718.769 478.582 713.189 471.607 708.725 462.958C704.261 454.588 702.308 445.102 702.308 434.5ZM887.244 328.759C884.454 327.922 883.059 326.527 883.059 324.853C883.059 323.737 883.896 322.342 886.128 321.226C927.699 301.138 953.925 290.815 964.806 290.815C967.317 290.815 969.27 291.652 970.665 292.768C971.781 293.884 972.618 295.279 972.897 296.395C972.897 297.511 973.176 299.464 973.176 301.696V413.296H975.129C977.082 413.296 979.314 412.18 981.546 409.39C983.778 406.6 986.289 403.531 989.358 399.625C992.148 395.719 995.775 392.092 999.681 388.186C1003.59 384.559 1008.89 381.49 1015.86 378.7C1022.84 375.91 1030.65 374.515 1039.58 374.515C1071.38 374.515 1087.29 396.556 1087.29 440.08L1087.57 493.369V541.078C1087.57 556.702 1090.63 567.583 1097.33 574H1003.87C1010.28 567.583 1013.63 556.702 1013.63 541.078V450.403C1013.63 433.942 1008.33 425.572 997.728 425.572C981.267 425.572 973.176 438.964 973.176 465.19V541.078C973.176 556.702 976.245 567.583 982.941 574H889.476C895.893 567.583 899.241 556.702 899.241 541.078V350.242V348.847V346.615C899.241 346.057 898.962 345.22 898.962 344.104C898.962 342.988 898.683 341.872 898.683 341.035C898.404 340.477 898.125 339.361 897.846 338.245C897.288 337.129 896.73 336.013 896.172 335.176C895.614 334.339 894.777 333.502 893.94 332.665C893.103 331.828 892.266 330.991 891.15 330.433C890.034 329.875 888.639 329.317 887.244 328.759Z" fill="#DDDDDB"/>
</svg>
