<?xml version="1.0" encoding="UTF-8"?>
<svg id="Layer_1" data-name="Layer 1" xmlns="http://www.w3.org/2000/svg" viewBox="0 0 1218 1223">
  <defs>
    <style>
      .cls-1 {
        fill: #21211d;
      }
    </style>
  </defs>
  <polygon class="cls-1" points="606.67 25.06 670.03 237.72 799.01 57.15 789.88 278.86 970.5 149.96 889.88 356.7 1102.57 293.42 959.19 462.78 1180.9 471.99 990.3 585.62 1197 666.32 979.83 711.91 1149.13 855.35 928.93 827.95 1042.48 1018.6 843.11 921.18 888.6 1138.36 731.66 981.49 704.17 1201.68 606.67 1002.35 509.18 1201.68 481.68 981.49 324.75 1138.36 370.24 921.18 170.87 1018.6 284.41 827.95 64.21 855.35 233.51 711.91 16.35 666.32 223.05 585.62 32.45 471.99 254.16 462.78 110.78 293.42 323.46 356.7 242.84 149.96 423.46 278.86 414.34 57.15 543.31 237.72 606.67 25.06"/>
</svg>